<?xml version="1.0" standalone="no"?>
<!DOCTYPE svg PUBLIC "-//W3C//DTD SVG 20010904//EN"
 "http://www.w3.org/TR/2001/REC-SVG-20010904/DTD/svg10.dtd">
<svg version="1.0" xmlns="http://www.w3.org/2000/svg"
 width="1280.000000pt" height="1153.000000pt" viewBox="0 0 1280.000000 1153.000000"
 preserveAspectRatio="xMidYMid meet">
<metadata>
Created by potrace 1.15, written by Peter Selinger 2001-2017
</metadata>
<g transform="translate(0.000000,1153.000000) scale(0.100000,-0.100000)"
fill="#000000" stroke="none">
<path d="M6515 11511 c-66 -40 -70 -52 -69 -180 1 -89 5 -128 20 -165 10 -27
24 -51 30 -53 12 -4 127 232 145 298 15 57 7 92 -26 107 -36 17 -65 15 -100
-7z"/>
<path d="M4654 11129 c-15 -17 -19 -36 -19 -103 1 -70 5 -88 30 -134 47 -86
221 -236 233 -201 9 25 -153 404 -187 438 -26 26 -33 26 -57 0z"/>
<path d="M7730 11105 c-18 -21 -29 -138 -30 -302 0 -160 4 -166 56 -85 73 113
93 208 65 304 -13 46 -50 98 -69 98 -5 0 -15 -7 -22 -15z"/>
<path d="M9255 10406 c-67 -31 -111 -70 -150 -131 -53 -84 -103 -235 -78 -235
16 0 296 273 327 319 24 34 26 43 16 56 -18 21 -57 18 -115 -9z"/>
<path d="M3256 10300 c-47 -57 -44 -122 11 -218 32 -56 83 -113 94 -106 13 7
11 311 -1 335 -17 31 -73 26 -104 -11z"/>
<path d="M4425 9467 c-56 -22 -95 -51 -122 -92 -15 -22 -40 -54 -56 -72 -36
-38 -32 -22 -182 -763 -135 -667 -212 -1030 -224 -1063 -7 -19 -63 -42 -342
-144 l-334 -123 -835 -3 c-917 -3 -883 -1 -1022 -66 -186 -86 -363 -285 -492
-555 -59 -122 -276 -677 -410 -1049 -219 -604 -361 -1087 -397 -1344 -10 -72
-9 -83 12 -138 32 -85 113 -164 193 -189 75 -24 154 -17 223 17 60 31 141 117
173 184 21 45 331 917 591 1665 l114 328 78 0 77 0 0 -2854 c0 -2831 0 -2854
20 -2919 76 -245 352 -356 597 -240 67 31 151 111 183 172 51 101 50 54 50
1829 l0 1652 70 0 70 0 0 -1632 c0 -1043 4 -1658 10 -1703 26 -180 138 -304
317 -350 195 -51 404 40 484 210 16 33 33 84 39 114 7 36 10 1021 10 2950 l0
2896 36 100 37 101 155 74 c340 163 616 325 713 419 41 40 51 59 79 146 37
116 84 306 139 560 27 124 41 172 45 155 3 -14 26 -126 50 -250 55 -277 100
-451 128 -501 49 -88 320 -275 669 -463 57 -31 111 -60 119 -66 13 -8 16 -360
20 -3037 l5 -3028 23 -57 c65 -162 188 -251 362 -265 162 -13 327 70 405 202
58 99 55 10 55 1827 l0 1668 75 0 75 0 2 -1692 3 -1693 23 -58 c66 -162 249
-269 437 -254 179 14 314 118 365 284 20 65 20 88 20 2977 l0 2911 37 104 c33
89 43 107 73 126 321 205 513 342 622 444 78 73 89 97 149 326 41 161 124 528
160 715 12 63 25 119 29 123 4 4 12 -25 19 -65 20 -119 119 -592 157 -743 59
-238 78 -287 134 -339 97 -91 372 -258 672 -407 l147 -73 35 -101 36 -100 0
-2910 c0 -3146 -3 -2961 50 -3066 79 -155 270 -240 448 -199 165 39 284 171
311 347 8 50 11 574 11 1707 l0 1636 70 0 70 0 0 -1678 c0 -1513 2 -1684 16
-1733 70 -235 335 -355 556 -252 107 50 167 116 211 231 l22 57 3 2868 2 2868
72 -3 71 -3 150 -445 c82 -245 230 -684 328 -977 98 -292 190 -555 204 -583
74 -146 222 -226 352 -191 97 26 186 120 214 226 28 103 -79 544 -278 1150
-188 570 -418 1195 -513 1390 -149 309 -334 492 -565 561 -55 16 -127 18 -861
21 l-801 4 -319 122 -318 123 -13 49 c-12 49 -117 576 -269 1351 -48 251 -83
403 -95 423 -26 43 -105 98 -167 117 -41 12 -85 15 -185 12 -117 -3 -138 -6
-188 -29 -79 -37 -136 -92 -150 -143 -14 -53 -65 -299 -190 -916 -55 -272
-118 -575 -140 -672 -21 -98 -39 -180 -39 -182 0 -3 -110 -61 -244 -130 l-243
-126 -756 0 -755 0 -294 121 c-161 67 -295 123 -297 125 -8 7 -46 208 -256
1374 -42 234 -81 432 -86 441 -18 35 -111 108 -156 123 -54 18 -144 20 -188 3z"/>
<path d="M6192 8880 c-125 -33 -225 -92 -328 -195 -150 -149 -214 -304 -214
-515 0 -208 65 -365 210 -510 145 -146 287 -209 486 -218 135 -5 235 16 364
79 68 34 102 60 175 133 129 129 194 258 215 432 45 359 -193 704 -546 794
-102 26 -261 26 -362 0z"/>
<path d="M10342 8880 c-123 -33 -206 -83 -307 -184 -97 -98 -144 -173 -187
-301 -20 -62 -23 -89 -23 -225 1 -141 3 -162 28 -235 138 -412 580 -609 953
-425 149 73 250 174 324 325 51 102 70 176 77 295 13 219 -62 414 -217 570
-86 85 -152 128 -260 166 -103 37 -280 44 -388 14z"/>
<path d="M2210 8809 c-235 -61 -427 -239 -505 -469 -67 -197 -51 -393 48 -585
55 -106 190 -244 292 -297 127 -66 202 -83 355 -82 118 0 145 4 215 27 242 80
427 280 489 528 23 93 21 255 -4 353 -33 129 -91 228 -194 332 -104 103 -203
161 -332 194 -103 27 -261 26 -364 -1z"/>
</g>
</svg>
